<?xml version="1.0" encoding="utf-8"?>
<!-- Generator: Adobe Illustrator 24.0.0, SVG Export Plug-In . SVG Version: 6.00 Build 0)  -->
<svg version="1.1" id="Isolation_Mode" xmlns="http://www.w3.org/2000/svg" xmlns:xlink="http://www.w3.org/1999/xlink" x="0px"
	 y="0px" viewBox="0 0 841.89 595.28" style="enable-background:new 0 0 841.89 595.28;" xml:space="preserve">
<style type="text/css">
	.st0{fill:url(#SVGID_1_);}
	.st1{fill:url(#SVGID_2_);}
	.st2{fill:url(#SVGID_3_);}
	.st3{fill:#FCFCFB;}
	.st4{fill:#F7F7F7;}
	.st5{fill:#F9F8F7;}
	.st6{fill:#F9F9FA;}
	.st7{fill:#F7F6F5;}
	.st8{fill:#F9F7F4;}
	.st9{fill:#FCFAFB;}
	.st10{fill:#FFFFFF;}
	.st11{fill:#FDFEFE;}
	.st12{fill:url(#SVGID_4_);}
</style>
<g>
	<g>
		<linearGradient id="SVGID_1_" gradientUnits="userSpaceOnUse" x1="251.8428" y1="373.8828" x2="266.5405" y2="373.8828">
			<stop  offset="0" style="stop-color:#000000"/>
			<stop  offset="0" style="stop-color:#F9F7F4"/>
		</linearGradient>
		<polygon class="st0" points="255.53,366.2 255.53,372.56 265.48,372.56 265.48,375.87 255.53,375.87 255.53,384.91 251.84,384.91 
			251.84,362.86 266.54,362.86 266.51,366.2 		"/>
		<g>
			<linearGradient id="SVGID_2_" gradientUnits="userSpaceOnUse" x1="223.7481" y1="373.8839" x2="224.2481" y2="373.8839">
				<stop  offset="0" style="stop-color:#000000"/>
				<stop  offset="0" style="stop-color:#F8F8F8"/>
			</linearGradient>
			<path class="st1" d="M289.32,375.68c0,5.72-3.61,9.23-9.54,9.23c-5.93,0-9.57-3.5-9.57-9.23v-12.82h3.7v12.82
				c0,3.69,2.29,5.91,5.9,5.91c3.58,0,5.8-2.19,5.8-5.91v-12.82h3.7V375.68z"/>
			<linearGradient id="SVGID_3_" gradientUnits="userSpaceOnUse" x1="294.4673" y1="373.8828" x2="312.8403" y2="373.8828">
				<stop  offset="0" style="stop-color:#000000"/>
				<stop  offset="0" style="stop-color:#FFFFFF"/>
			</linearGradient>
			<path class="st2" d="M304.51,378.23c-0.32,0.03-0.67,0.03-1.02,0.03h-5.28v6.65h-3.75v-22.05h9.03c5.69,0,8.96,2.74,8.96,7.53
				c0,3.53-1.65,6.01-4.61,7.15l4.99,7.37h-4.26L304.51,378.23z M303.5,374.92c3.43,0,5.4-1.45,5.4-4.44c0-2.9-1.97-4.28-5.4-4.28
				h-5.28v8.72H303.5z"/>
			<polygon class="st3" points="333.44,384.91 321.7,369.1 321.7,384.91 317.98,384.91 317.98,362.86 321.64,362.86 333.44,378.7 
				333.44,362.86 337.09,362.86 337.09,384.91 			"/>
			<rect x="343.71" y="362.86" class="st4" width="3.67" height="22.05"/>
			<polygon class="st5" points="362.45,366.2 362.45,384.91 358.74,384.91 358.74,366.2 351.79,366.2 351.79,362.86 369.43,362.86 
				369.43,366.2 			"/>
			<path class="st6" d="M393.68,373.85c0,6.23-4.97,11.06-11.39,11.06s-11.39-4.83-11.39-11.06c0-6.26,4.97-10.99,11.39-10.99
				S393.68,367.62,393.68,373.85 M374.58,373.85c0,4.33,3.53,7.75,7.74,7.75c4.21,0,7.65-3.43,7.65-7.75c0-4.33-3.44-7.69-7.65-7.69
				C378.08,366.16,374.58,369.52,374.58,373.85"/>
			<polygon class="st7" points="416.48,384.91 411.33,367.71 406.13,384.91 402.34,384.91 395.15,362.86 399.09,362.86 
				404.36,380.78 409.6,362.89 413.19,362.86 418.46,380.78 423.7,362.86 427.49,362.86 420.23,384.91 			"/>
			<polygon class="st8" points="446.62,384.91 434.88,369.1 434.88,384.91 431.16,384.91 431.16,362.86 434.81,362.86 446.62,378.7 
				446.62,362.86 450.27,362.86 450.27,384.91 			"/>
			<polygon class="st9" points="304.78,406.91 304.78,403.71 300.43,403.71 300.43,406.91 299.61,406.91 299.61,399.64 
				300.43,399.64 300.43,402.92 304.78,402.92 304.78,399.64 305.6,399.64 305.6,406.91 			"/>
			<path class="st6" d="M314.91,403.27c0,2.05-1.67,3.68-3.77,3.68c-2.11,0-3.78-1.63-3.78-3.68c0-2.06,1.67-3.66,3.78-3.66
				C313.24,399.62,314.91,401.23,314.91,403.27 M308.19,403.27c0,1.6,1.34,2.88,2.94,2.88c1.6,0,2.92-1.28,2.92-2.88
				c0-1.6-1.32-2.87-2.92-2.87C309.53,400.41,308.19,401.67,308.19,403.27"/>
			<polygon class="st5" points="323.19,406.91 323.18,400.91 320.56,406.14 320.06,406.14 317.45,400.91 317.45,406.91 
				316.67,406.91 316.67,399.64 317.68,399.64 320.32,404.88 322.94,399.64 323.95,399.64 323.95,406.91 			"/>
			<polygon class="st10" points="327.22,400.44 327.22,402.83 330.86,402.83 330.86,403.63 327.22,403.63 327.22,406.12 
				331.42,406.12 331.42,406.91 326.4,406.91 326.4,399.64 331.29,399.64 331.29,400.44 			"/>
			<polygon class="st5" points="337.26,400.44 337.26,402.99 340.63,402.99 340.63,403.79 337.26,403.79 337.26,406.91 
				336.43,406.91 336.43,399.64 341.02,399.64 341.02,400.44 			"/>
			<path class="st5" d="M348.37,403.92c0,1.89-1.13,3.04-3.02,3.04c-1.89,0-3.04-1.14-3.04-3.04v-4.28h0.82v4.28
				c0,1.41,0.84,2.23,2.21,2.23c1.37,0,2.19-0.82,2.19-2.23v-4.28h0.82V403.92z"/>
			<path class="st10" d="M353.87,404.59c-0.15,0.01-0.32,0.02-0.48,0.02h-1.91v2.3h-0.82v-7.28h2.74c1.8,0,2.84,0.89,2.84,2.44
				c0,1.21-0.58,2.02-1.62,2.36l1.69,2.47h-0.94L353.87,404.59z M353.39,403.81c1.31,0,2.05-0.58,2.05-1.71
				c0-1.1-0.74-1.66-2.05-1.66h-1.91v3.38H353.39z"/>
			<polygon class="st5" points="363.49,406.91 359.17,401.07 359.17,406.91 358.35,406.91 358.35,399.64 359.2,399.64 
				363.52,405.49 363.52,399.64 364.34,399.64 364.34,406.91 			"/>
			<rect x="366.79" y="399.64" class="st3" width="0.82" height="7.28"/>
			<path class="st3" d="M374.47,400.28l-0.35,0.78c-0.65-0.44-1.41-0.61-1.99-0.61c-0.93,0-1.53,0.35-1.53,0.97
				c0,1.87,4.05,0.89,4.04,3.53c0,1.22-1.06,2-2.6,2c-1.05,0-2.08-0.46-2.76-1.11l0.37-0.75c0.67,0.65,1.58,1.03,2.4,1.03
				c1.04,0,1.69-0.43,1.69-1.12c0.01-1.91-4.05-0.89-4.05-3.5c0-1.14,1-1.88,2.49-1.88C373.02,399.6,373.88,399.88,374.47,400.28"/>
			<polygon class="st6" points="381.76,406.91 381.76,403.71 377.42,403.71 377.42,406.91 376.59,406.91 376.59,399.64 
				377.42,399.64 377.42,402.92 381.76,402.92 381.76,399.64 382.58,399.64 382.58,406.91 			"/>
			<rect x="385.02" y="399.64" class="st11" width="0.82" height="7.28"/>
			<polygon class="st6" points="393.43,406.91 389.11,401.07 389.11,406.91 388.29,406.91 388.29,399.64 389.14,399.64 
				393.46,405.49 393.46,399.64 394.28,399.64 394.28,406.91 			"/>
			<path class="st5" d="M402.48,403.36V406c-0.71,0.57-1.71,0.96-2.68,0.96c-2.09,0-3.76-1.63-3.76-3.68c0-2.05,1.68-3.66,3.8-3.66
				c1,0,1.97,0.39,2.66,1l-0.47,0.62c-0.59-0.53-1.38-0.84-2.18-0.84c-1.65,0-2.96,1.28-2.96,2.88c0,1.61,1.33,2.89,2.97,2.89
				c0.65,0,1.34-0.23,1.89-0.61v-2.19H402.48z"/>
			<linearGradient id="SVGID_4_" gradientUnits="userSpaceOnUse" x1="479.9279" y1="322.9802" x2="457.9431" y2="319.1329">
				<stop  offset="0" style="stop-color:#000000"/>
				<stop  offset="1" style="stop-color:#F8F8F8"/>
			</linearGradient>
			<path class="st12" d="M394.13,281.04l-1.92-1.28l-36.3-24.2l-4.41-2.94l-0.44-0.3l-0.45,0.3l-4.41,2.94l-36.3,24.2l-1.91,1.28
				l-1.02,0.68v2.26v1.28v24.2v2.94v28.42h2.94v-2.94v-2.78v-22.7h11.27v22.7v5.72h2.94v-5.72v-22.7h11.27v22.7v2.78v2.94h2.94
				v-2.94V312.4v-2.94h-14.21v-11.27H378v11.27h-14.21v2.94v25.48v2.94h2.94v-2.94v-2.78v-22.7H378v22.7v5.72h2.94v-5.72v-22.7
				h11.27v22.7v5.72h2.94V312.4v-2.94v-24.2v-1.28v-2.26L394.13,281.04z M380.94,309.46v-14.21h-59.77v14.21H309.9v-25.48v-0.68
				l3.39-2.26l37.77-25.18l37.77,25.18l3.38,2.26v0.68v25.48H380.94z"/>
		</g>
	</g>
</g>
</svg>
