<?xml version="1.0" encoding="utf-8"?>
<!-- Generator: Adobe Illustrator 24.0.0, SVG Export Plug-In . SVG Version: 6.00 Build 0)  -->
<svg version="1.1" id="Isolation_Mode" xmlns="http://www.w3.org/2000/svg" xmlns:xlink="http://www.w3.org/1999/xlink" x="0px"
	 y="0px" viewBox="0 0 88.19 88.49" style="enable-background:new 0 0 88.19 88.49;" xml:space="preserve">
<style type="text/css">
	.st0{fill:#CB8F2B;}
</style>
<path class="st0" d="M87.16,28.71l-1.91-1.28l-36.3-24.2L44.54,0.3L44.09,0l-0.45,0.3l-4.41,2.94l-36.3,24.2l-1.91,1.28L0,29.4v2.26
	v1.28v24.2v2.94v28.42h2.94v-2.94v-2.78v-22.7h11.27v22.7v5.72h2.94v-5.72v-22.7h11.27v22.7v2.78v2.94h2.94v-2.94V60.07v-2.94H17.15
	V45.86h53.89v11.27H56.83v2.94v25.48v2.94h2.94v-2.94v-2.78v-22.7h11.27v22.7v5.72h2.94v-5.72v-22.7h11.27v22.7v5.72h2.94V60.07
	v-2.94v-24.2v-1.28V29.4L87.16,28.71z M73.98,57.13V42.92H14.21v14.21H2.94V31.65v-0.68l3.39-2.26L44.09,3.53l37.77,25.18l3.38,2.26
	v0.68v25.48H73.98z"/>
</svg>
